<mxfile host="app.diagrams.net" modified="2024-04-02T07:06:24.238Z" agent="Mozilla/5.0 (Windows NT 10.0; Win64; x64) AppleWebKit/537.36 (KHTML, like Gecko) Chrome/116.0.0.0 Safari/537.36" etag="wwlng453HGdIrm2V5vXx" version="24.2.1" type="github">
  <diagram name="第 1 页" id="p74Cr0yr_PtNtTbxzLrv">
    <mxGraphModel dx="610" dy="323" grid="1" gridSize="10" guides="1" tooltips="1" connect="1" arrows="1" fold="1" page="1" pageScale="1" pageWidth="827" pageHeight="1169" math="0" shadow="0">
      <root>
        <mxCell id="0" />
        <mxCell id="1" parent="0" />
        <mxCell id="FqdO26yVTFGnQF6mDzrA-34" value="" style="edgeStyle=orthogonalEdgeStyle;rounded=0;orthogonalLoop=1;jettySize=auto;html=1;entryX=0;entryY=0.5;entryDx=0;entryDy=0;fontFamily=Times New Roman;" edge="1" parent="1" source="FqdO26yVTFGnQF6mDzrA-3" target="FqdO26yVTFGnQF6mDzrA-27">
          <mxGeometry relative="1" as="geometry">
            <mxPoint x="260" y="345" as="targetPoint" />
          </mxGeometry>
        </mxCell>
        <mxCell id="FqdO26yVTFGnQF6mDzrA-3" value="&lt;font style=&quot;font-size: 12px;&quot;&gt;Word Embedding&amp;amp;&lt;/font&gt;&lt;div&gt;&lt;font style=&quot;font-size: 12px;&quot;&gt;&lt;font&gt;Positional Encoding&lt;/font&gt;&lt;br&gt;&lt;/font&gt;&lt;/div&gt;" style="rounded=0;whiteSpace=wrap;html=1;fontFamily=Times New Roman;" vertex="1" parent="1">
          <mxGeometry x="135" y="355" width="100" height="40" as="geometry" />
        </mxCell>
        <mxCell id="FqdO26yVTFGnQF6mDzrA-15" value="" style="whiteSpace=wrap;html=1;rounded=0;fillColor=#f5f5f5;fontColor=#333333;strokeColor=#666666;fontFamily=Times New Roman;" vertex="1" parent="1">
          <mxGeometry x="125" y="285" width="30" height="30" as="geometry" />
        </mxCell>
        <mxCell id="FqdO26yVTFGnQF6mDzrA-16" value="" style="whiteSpace=wrap;html=1;rounded=0;fillColor=#f5f5f5;fontColor=#333333;strokeColor=#666666;fontFamily=Times New Roman;" vertex="1" parent="1">
          <mxGeometry x="155" y="285" width="30" height="30" as="geometry" />
        </mxCell>
        <mxCell id="FqdO26yVTFGnQF6mDzrA-17" value="" style="whiteSpace=wrap;html=1;rounded=0;fillColor=#f5f5f5;fontColor=#333333;strokeColor=#666666;fontFamily=Times New Roman;" vertex="1" parent="1">
          <mxGeometry x="185" y="285" width="30" height="30" as="geometry" />
        </mxCell>
        <mxCell id="FqdO26yVTFGnQF6mDzrA-18" value="" style="whiteSpace=wrap;html=1;rounded=0;fillColor=#f5f5f5;fontColor=#333333;strokeColor=#666666;fontFamily=Times New Roman;" vertex="1" parent="1">
          <mxGeometry x="135" y="295" width="30" height="30" as="geometry" />
        </mxCell>
        <mxCell id="FqdO26yVTFGnQF6mDzrA-19" value="" style="whiteSpace=wrap;html=1;rounded=0;fillColor=#f5f5f5;fontColor=#333333;strokeColor=#666666;fontFamily=Times New Roman;" vertex="1" parent="1">
          <mxGeometry x="165" y="295" width="30" height="30" as="geometry" />
        </mxCell>
        <mxCell id="FqdO26yVTFGnQF6mDzrA-20" value="" style="whiteSpace=wrap;html=1;rounded=0;fillColor=#f5f5f5;fontColor=#333333;strokeColor=#666666;fontFamily=Times New Roman;" vertex="1" parent="1">
          <mxGeometry x="195" y="295" width="30" height="30" as="geometry" />
        </mxCell>
        <mxCell id="FqdO26yVTFGnQF6mDzrA-21" value="" style="whiteSpace=wrap;html=1;rounded=0;fillColor=#f5f5f5;fontColor=#333333;strokeColor=#666666;fontFamily=Times New Roman;" vertex="1" parent="1">
          <mxGeometry x="145" y="305" width="30" height="30" as="geometry" />
        </mxCell>
        <mxCell id="FqdO26yVTFGnQF6mDzrA-22" value="" style="whiteSpace=wrap;html=1;rounded=0;fillColor=#f5f5f5;fontColor=#333333;strokeColor=#666666;fontFamily=Times New Roman;" vertex="1" parent="1">
          <mxGeometry x="175" y="305" width="30" height="30" as="geometry" />
        </mxCell>
        <mxCell id="FqdO26yVTFGnQF6mDzrA-23" value="" style="whiteSpace=wrap;html=1;rounded=0;fillColor=#f5f5f5;fontColor=#333333;strokeColor=#666666;fontFamily=Times New Roman;" vertex="1" parent="1">
          <mxGeometry x="205" y="305" width="30" height="30" as="geometry" />
        </mxCell>
        <mxCell id="FqdO26yVTFGnQF6mDzrA-27" value="" style="rounded=1;whiteSpace=wrap;html=1;fillColor=none;dashed=1;dashPattern=1 2;fontFamily=Times New Roman;" vertex="1" parent="1">
          <mxGeometry x="270" y="280" width="235" height="110" as="geometry" />
        </mxCell>
        <mxCell id="FqdO26yVTFGnQF6mDzrA-28" value="&lt;div style=&quot;&quot;&gt;&lt;br&gt;&lt;/div&gt;" style="rounded=1;whiteSpace=wrap;html=1;fillColor=none;align=left;horizontal=0;labelPosition=center;verticalLabelPosition=middle;verticalAlign=middle;textDirection=ltr;fontFamily=Times New Roman;" vertex="1" parent="1">
          <mxGeometry x="275" y="290" width="115" height="90" as="geometry" />
        </mxCell>
        <mxCell id="FqdO26yVTFGnQF6mDzrA-29" value="&lt;div style=&quot;line-height: 100%; font-size: 10px;&quot;&gt;&lt;font style=&quot;font-size: 10px;&quot;&gt;Feed-Forward&amp;nbsp;&lt;/font&gt;&lt;/div&gt;&lt;div style=&quot;line-height: 100%; font-size: 10px;&quot;&gt;&lt;span style=&quot;background-color: initial;&quot;&gt;Neural network&lt;/span&gt;&lt;/div&gt;" style="rounded=0;whiteSpace=wrap;html=1;fontFamily=Times New Roman;" vertex="1" parent="1">
          <mxGeometry x="290" y="300" width="90" height="30" as="geometry" />
        </mxCell>
        <mxCell id="FqdO26yVTFGnQF6mDzrA-30" value="&lt;div style=&quot;line-height: 100%; font-size: 10px;&quot;&gt;&lt;font style=&quot;font-size: 10px;&quot;&gt;&lt;font style=&quot;font-size: 10px;&quot;&gt;Multi-Head&amp;nbsp;&lt;/font&gt;&lt;/font&gt;&lt;/div&gt;&lt;div style=&quot;line-height: 100%; font-size: 10px;&quot;&gt;&lt;font style=&quot;font-size: 10px;&quot;&gt;&lt;span style=&quot;background-color: initial;&quot;&gt;Self-Attention&lt;/span&gt;&lt;/font&gt;&lt;/div&gt;" style="rounded=0;whiteSpace=wrap;html=1;fontFamily=Times New Roman;" vertex="1" parent="1">
          <mxGeometry x="290" y="340" width="90" height="30" as="geometry" />
        </mxCell>
        <mxCell id="FqdO26yVTFGnQF6mDzrA-38" value="&lt;div style=&quot;&quot;&gt;&lt;span style=&quot;background-color: initial;&quot;&gt;Encoder2&lt;/span&gt;&lt;/div&gt;" style="rounded=1;whiteSpace=wrap;html=1;fillColor=none;horizontal=0;align=center;fontFamily=Times New Roman;" vertex="1" parent="1">
          <mxGeometry x="400.38" y="290" width="20" height="90" as="geometry" />
        </mxCell>
        <mxCell id="FqdO26yVTFGnQF6mDzrA-39" value="&lt;span style=&quot;&quot;&gt;Encoder3&lt;/span&gt;" style="rounded=1;whiteSpace=wrap;html=1;fillColor=none;horizontal=0;fontFamily=Times New Roman;" vertex="1" parent="1">
          <mxGeometry x="430" y="290" width="20" height="90" as="geometry" />
        </mxCell>
        <mxCell id="FqdO26yVTFGnQF6mDzrA-40" value="&lt;span style=&quot;&quot;&gt;Encoder12&lt;/span&gt;" style="rounded=1;whiteSpace=wrap;html=1;fillColor=none;horizontal=0;fontFamily=Times New Roman;" vertex="1" parent="1">
          <mxGeometry x="470" y="290" width="20" height="90" as="geometry" />
        </mxCell>
        <mxCell id="FqdO26yVTFGnQF6mDzrA-41" value="&lt;span style=&quot;text-align: left;&quot;&gt;Encoder1&lt;/span&gt;" style="text;html=1;align=center;verticalAlign=middle;whiteSpace=wrap;rounded=0;horizontal=0;fontFamily=Times New Roman;" vertex="1" parent="1">
          <mxGeometry x="270" y="308.75" width="20" height="50" as="geometry" />
        </mxCell>
        <mxCell id="FqdO26yVTFGnQF6mDzrA-42" value="···" style="text;html=1;align=center;verticalAlign=middle;whiteSpace=wrap;rounded=0;fontFamily=Times New Roman;" vertex="1" parent="1">
          <mxGeometry x="447.5" y="323.75" width="25" height="20" as="geometry" />
        </mxCell>
        <mxCell id="FqdO26yVTFGnQF6mDzrA-43" value="&lt;div&gt;&lt;font style=&quot;font-size: 12px;&quot;&gt;&lt;font face=&quot;宋体&quot;&gt;代码表示&lt;/font&gt;&lt;i style=&quot;&quot;&gt;H&lt;/i&gt;&lt;sup style=&quot;font-style: italic;&quot;&gt;n&lt;/sup&gt;&lt;br&gt;&lt;/font&gt;&lt;/div&gt;" style="rounded=0;whiteSpace=wrap;html=1;fontFamily=Times New Roman;" vertex="1" parent="1">
          <mxGeometry x="133" y="430" width="100" height="40" as="geometry" />
        </mxCell>
        <mxCell id="FqdO26yVTFGnQF6mDzrA-44" value="" style="endArrow=classic;html=1;rounded=0;fontFamily=Times New Roman;entryX=0.521;entryY=-0.049;entryDx=0;entryDy=0;entryPerimeter=0;exitX=1;exitY=0.5;exitDx=0;exitDy=0;" edge="1" parent="1" source="FqdO26yVTFGnQF6mDzrA-27" target="FqdO26yVTFGnQF6mDzrA-43">
          <mxGeometry width="50" height="50" relative="1" as="geometry">
            <mxPoint x="510" y="340" as="sourcePoint" />
            <mxPoint x="185.00000000000003" y="410.84000000000003" as="targetPoint" />
            <Array as="points">
              <mxPoint x="520" y="335" />
              <mxPoint x="520.1" y="400" />
              <mxPoint x="185.29999999999998" y="400.14" />
            </Array>
          </mxGeometry>
        </mxCell>
        <mxCell id="FqdO26yVTFGnQF6mDzrA-46" value="" style="edgeStyle=orthogonalEdgeStyle;rounded=0;orthogonalLoop=1;jettySize=auto;html=1;fontFamily=Times New Roman;exitX=1;exitY=0.5;exitDx=0;exitDy=0;" edge="1" parent="1" source="FqdO26yVTFGnQF6mDzrA-43">
          <mxGeometry relative="1" as="geometry">
            <mxPoint x="240" y="450" as="sourcePoint" />
            <mxPoint x="275" y="450" as="targetPoint" />
          </mxGeometry>
        </mxCell>
        <mxCell id="FqdO26yVTFGnQF6mDzrA-124" value="" style="group" vertex="1" connectable="0" parent="1">
          <mxGeometry x="276" y="410" width="104" height="100" as="geometry" />
        </mxCell>
        <mxCell id="FqdO26yVTFGnQF6mDzrA-82" value="" style="ellipse;whiteSpace=wrap;html=1;aspect=fixed;" vertex="1" parent="FqdO26yVTFGnQF6mDzrA-124">
          <mxGeometry x="4.498472423219168" width="15.214139983088584" height="15.214139983088584" as="geometry" />
        </mxCell>
        <mxCell id="FqdO26yVTFGnQF6mDzrA-83" value="" style="ellipse;whiteSpace=wrap;html=1;aspect=fixed;" vertex="1" parent="FqdO26yVTFGnQF6mDzrA-124">
          <mxGeometry x="4.498472423219168" y="25.653301261533883" width="15.214139983088584" height="15.214139983088584" as="geometry" />
        </mxCell>
        <mxCell id="FqdO26yVTFGnQF6mDzrA-84" value="" style="ellipse;whiteSpace=wrap;html=1;aspect=fixed;" vertex="1" parent="FqdO26yVTFGnQF6mDzrA-124">
          <mxGeometry x="4.498472423219168" y="65.89852094689404" width="15.214139983088584" height="15.214139983088584" as="geometry" />
        </mxCell>
        <mxCell id="FqdO26yVTFGnQF6mDzrA-85" value="" style="ellipse;whiteSpace=wrap;html=1;aspect=fixed;" vertex="1" parent="FqdO26yVTFGnQF6mDzrA-124">
          <mxGeometry x="55.97039654347903" y="12.826650630766942" width="15.214139983088584" height="15.214139983088584" as="geometry" />
        </mxCell>
        <mxCell id="FqdO26yVTFGnQF6mDzrA-86" value="" style="ellipse;whiteSpace=wrap;html=1;aspect=fixed;" vertex="1" parent="FqdO26yVTFGnQF6mDzrA-124">
          <mxGeometry x="55.97039654347903" y="38.479951892300825" width="15.214139983088584" height="15.214139983088584" as="geometry" />
        </mxCell>
        <mxCell id="FqdO26yVTFGnQF6mDzrA-88" value="" style="endArrow=classic;html=1;rounded=0;exitX=1;exitY=0.5;exitDx=0;exitDy=0;entryX=0;entryY=0.5;entryDx=0;entryDy=0;" edge="1" parent="FqdO26yVTFGnQF6mDzrA-124" target="FqdO26yVTFGnQF6mDzrA-85" source="FqdO26yVTFGnQF6mDzrA-82">
          <mxGeometry width="50" height="50" relative="1" as="geometry">
            <mxPoint x="38.813088503392414" y="10.261320504613545" as="sourcePoint" />
            <mxPoint x="55.97039654347903" y="17.957310883073735" as="targetPoint" />
          </mxGeometry>
        </mxCell>
        <mxCell id="FqdO26yVTFGnQF6mDzrA-100" value="" style="endArrow=classic;html=1;rounded=0;entryX=0;entryY=0.5;entryDx=0;entryDy=0;exitX=1;exitY=0.5;exitDx=0;exitDy=0;" edge="1" parent="FqdO26yVTFGnQF6mDzrA-124" source="FqdO26yVTFGnQF6mDzrA-82" target="FqdO26yVTFGnQF6mDzrA-86">
          <mxGeometry width="50" height="50" relative="1" as="geometry">
            <mxPoint x="43.10241551341407" y="33.349291639994036" as="sourcePoint" />
            <mxPoint x="60.25972355350068" y="43.61061214460763" as="targetPoint" />
          </mxGeometry>
        </mxCell>
        <mxCell id="FqdO26yVTFGnQF6mDzrA-101" value="" style="endArrow=classic;html=1;rounded=0;exitX=1;exitY=0.5;exitDx=0;exitDy=0;entryX=0;entryY=0.5;entryDx=0;entryDy=0;" edge="1" parent="FqdO26yVTFGnQF6mDzrA-124" source="FqdO26yVTFGnQF6mDzrA-83" target="FqdO26yVTFGnQF6mDzrA-85">
          <mxGeometry width="50" height="50" relative="1" as="geometry">
            <mxPoint x="47.391742523435724" y="35.914621766147434" as="sourcePoint" />
            <mxPoint x="64.54905056352236" y="46.17594227076102" as="targetPoint" />
          </mxGeometry>
        </mxCell>
        <mxCell id="FqdO26yVTFGnQF6mDzrA-102" value="" style="endArrow=classic;html=1;rounded=0;entryX=0;entryY=0.5;entryDx=0;entryDy=0;exitX=1;exitY=0.5;exitDx=0;exitDy=0;" edge="1" parent="FqdO26yVTFGnQF6mDzrA-124" target="FqdO26yVTFGnQF6mDzrA-86" source="FqdO26yVTFGnQF6mDzrA-83">
          <mxGeometry width="50" height="50" relative="1" as="geometry">
            <mxPoint x="38.813088503392414" y="35.914621766147434" as="sourcePoint" />
            <mxPoint x="68.838377573544" y="48.74127239691441" as="targetPoint" />
          </mxGeometry>
        </mxCell>
        <mxCell id="FqdO26yVTFGnQF6mDzrA-103" value="" style="endArrow=classic;html=1;rounded=0;exitX=1;exitY=0.5;exitDx=0;exitDy=0;entryX=-0.009;entryY=0.523;entryDx=0;entryDy=0;entryPerimeter=0;" edge="1" parent="FqdO26yVTFGnQF6mDzrA-124" source="FqdO26yVTFGnQF6mDzrA-84" target="FqdO26yVTFGnQF6mDzrA-85">
          <mxGeometry width="50" height="50" relative="1" as="geometry">
            <mxPoint x="55.97039654347903" y="41.04528201845422" as="sourcePoint" />
            <mxPoint x="55.97039654347903" y="23.087971135380492" as="targetPoint" />
          </mxGeometry>
        </mxCell>
        <mxCell id="FqdO26yVTFGnQF6mDzrA-104" value="" style="endArrow=classic;html=1;rounded=0;exitX=1;exitY=0.5;exitDx=0;exitDy=0;entryX=0;entryY=0.5;entryDx=0;entryDy=0;" edge="1" parent="FqdO26yVTFGnQF6mDzrA-124" source="FqdO26yVTFGnQF6mDzrA-84" target="FqdO26yVTFGnQF6mDzrA-86">
          <mxGeometry width="50" height="50" relative="1" as="geometry">
            <mxPoint x="60.25972355350068" y="43.61061214460763" as="sourcePoint" />
            <mxPoint x="77.4170315935873" y="53.87193264922117" as="targetPoint" />
          </mxGeometry>
        </mxCell>
        <mxCell id="FqdO26yVTFGnQF6mDzrA-107" value="&lt;font face=&quot;Times New Roman&quot;&gt;····&lt;/font&gt;" style="text;html=1;align=center;verticalAlign=middle;whiteSpace=wrap;rounded=0;horizontal=0;" vertex="1" parent="FqdO26yVTFGnQF6mDzrA-124">
          <mxGeometry x="-1.929318841050192" y="40.869716979302076" width="28.075594974687196" height="18.277977148842904" as="geometry" />
        </mxCell>
        <mxCell id="FqdO26yVTFGnQF6mDzrA-128" value="&lt;font face=&quot;宋体&quot;&gt;全连接层&lt;/font&gt;" style="text;html=1;align=center;verticalAlign=middle;whiteSpace=wrap;rounded=0;" vertex="1" parent="FqdO26yVTFGnQF6mDzrA-124">
          <mxGeometry x="-11.045505708313241" y="80" width="50.168837433671015" height="20" as="geometry" />
        </mxCell>
        <mxCell id="FqdO26yVTFGnQF6mDzrA-129" value="&lt;font face=&quot;宋体&quot;&gt;输出层&lt;/font&gt;" style="text;html=1;align=center;verticalAlign=middle;whiteSpace=wrap;rounded=0;" vertex="1" parent="FqdO26yVTFGnQF6mDzrA-124">
          <mxGeometry x="40.42772149863322" y="53.69333333333335" width="50.168837433671015" height="20" as="geometry" />
        </mxCell>
        <mxCell id="FqdO26yVTFGnQF6mDzrA-131" value="&lt;div&gt;&lt;font face=&quot;Times New Roman&quot; style=&quot;font-size: 12px;&quot;&gt;SVD Model&lt;/font&gt;&lt;/div&gt;" style="rounded=0;whiteSpace=wrap;html=1;fontFamily=Times New Roman;" vertex="1" parent="1">
          <mxGeometry x="410" y="430" width="100" height="40" as="geometry" />
        </mxCell>
        <mxCell id="FqdO26yVTFGnQF6mDzrA-132" value="" style="endArrow=classic;html=1;rounded=0;" edge="1" parent="1">
          <mxGeometry width="50" height="50" relative="1" as="geometry">
            <mxPoint x="370" y="450" as="sourcePoint" />
            <mxPoint x="410" y="450" as="targetPoint" />
          </mxGeometry>
        </mxCell>
        <mxCell id="FqdO26yVTFGnQF6mDzrA-138" value="" style="endArrow=classic;html=1;rounded=0;entryX=0.5;entryY=0;entryDx=0;entryDy=0;exitX=0.332;exitY=1.004;exitDx=0;exitDy=0;exitPerimeter=0;" edge="1" parent="1" source="FqdO26yVTFGnQF6mDzrA-22" target="FqdO26yVTFGnQF6mDzrA-3">
          <mxGeometry width="50" height="50" relative="1" as="geometry">
            <mxPoint x="185" y="340" as="sourcePoint" />
            <mxPoint x="230" y="370" as="targetPoint" />
          </mxGeometry>
        </mxCell>
      </root>
    </mxGraphModel>
  </diagram>
</mxfile>
